<svg width="680" height="830" viewBox="0 0 680 830" xmlns="http://www.w3.org/2000/svg" xmlns:xlink="http://www.w3.org/1999/xlink">

  <rect width="680" height="830" fill="#0d1117"/>
  <rect x="0" y="0" width="4" height="830" fill="#1D9E75"/>
  <circle cx="620" cy="30" r="140" fill="none" stroke="#161b22" stroke-width="1"/>
  <circle cx="660" cy="110" r="90" fill="none" stroke="#1c2128" stroke-width="0.8"/>

  <!-- BLOQUE 1 — NOMBRE + BIO -->
  <text x="42" y="80" font-family="Georgia, 'Times New Roman', serif" font-size="52" font-weight="700" fill="#f0f6fc" letter-spacing="-2">Alexander Echeverría</text>
  <line x1="42" y1="96" x2="400" y2="96" stroke="#1D9E75" stroke-width="1.5"/>
  <text x="42" y="118" font-family="'Segoe UI', Arial, sans-serif" font-size="12" fill="#8b949e" letter-spacing="3">FULL-STACK DEVELOPER JR</text>

  <text x="42" y="150" font-family="'Segoe UI', Arial, sans-serif" font-size="12" fill="#c9d1d9">Ingeniero en Sistemas con mas de 3 anos de experiencia construyendo</text>
  <text x="42" y="167" font-family="'Segoe UI', Arial, sans-serif" font-size="12" fill="#c9d1d9">aplicaciones web completas. Especializado en React, Node.js y PostgreSQL,</text>
  <text x="42" y="184" font-family="'Segoe UI', Arial, sans-serif" font-size="12" fill="#c9d1d9">con enfoque en soluciones reales para negocios e instituciones en Guatemala.</text>
  <text x="42" y="208" font-family="'Segoe UI', Arial, sans-serif" font-size="12" fill="#484f58">Experiencia adicional en infraestructura tecnologica, administracion de sistemas,</text>
  <text x="42" y="225" font-family="'Segoe UI', Arial, sans-serif" font-size="12" fill="#484f58">instalacion de redes y soporte tecnico especializado.</text>

  <line x1="42" y1="248" x2="638" y2="248" stroke="#21262d" stroke-width="0.5"/>
  <text x="42" y="268" font-family="'Segoe UI', Arial, sans-serif" font-size="11" fill="#1D9E75">github.com/Alexander199824</text>
  <text x="540" y="268" font-family="'Segoe UI', Arial, sans-serif" font-size="11" fill="#484f58">Guatemala</text>

  <!-- BLOQUE 2 — TECNOLOGIAS -->
  <line x1="42" y1="320" x2="638" y2="320" stroke="#21262d" stroke-width="0.5"/>
  <text x="42" y="344" font-family="Georgia, serif" font-size="15" font-weight="700" fill="#f0f6fc">Tecnologias</text>
  <line x1="42" y1="352" x2="130" y2="352" stroke="#1D9E75" stroke-width="1"/>

  <text x="42" y="374" font-family="'Segoe UI', Arial, sans-serif" font-size="10" fill="#484f58" letter-spacing="2">FRONTEND</text>
  <circle cx="114" cy="370" r="4" fill="#E34F26"/><text x="122" y="374" font-family="'Segoe UI', Arial, sans-serif" font-size="11" fill="#8b949e">HTML5</text>
  <circle cx="172" cy="370" r="4" fill="#1572B6"/><text x="180" y="374" font-family="'Segoe UI', Arial, sans-serif" font-size="11" fill="#8b949e">CSS3</text>
  <circle cx="220" cy="370" r="4" fill="#61DAFB"/><text x="228" y="374" font-family="'Segoe UI', Arial, sans-serif" font-size="11" fill="#8b949e">React</text>
  <circle cx="276" cy="370" r="4" fill="#3178C6"/><text x="284" y="374" font-family="'Segoe UI', Arial, sans-serif" font-size="11" fill="#8b949e">TypeScript</text>
  <circle cx="368" cy="370" r="4" fill="#F7DF1E"/><text x="376" y="374" font-family="'Segoe UI', Arial, sans-serif" font-size="11" fill="#8b949e">JavaScript</text>
  <circle cx="452" cy="370" r="4" fill="#38B2AC"/><text x="460" y="374" font-family="'Segoe UI', Arial, sans-serif" font-size="11" fill="#8b949e">Tailwind</text>
  <circle cx="520" cy="370" r="4" fill="#646CFF"/><text x="528" y="374" font-family="'Segoe UI', Arial, sans-serif" font-size="11" fill="#8b949e">Vite</text>

  <text x="42" y="400" font-family="'Segoe UI', Arial, sans-serif" font-size="10" fill="#484f58" letter-spacing="2">BACKEND</text>
  <circle cx="114" cy="396" r="4" fill="#339933"/><text x="122" y="400" font-family="'Segoe UI', Arial, sans-serif" font-size="11" fill="#8b949e">Node.js</text>
  <circle cx="178" cy="396" r="4" fill="#aaaaaa"/><text x="186" y="400" font-family="'Segoe UI', Arial, sans-serif" font-size="11" fill="#8b949e">Express</text>
  <circle cx="250" cy="396" r="4" fill="#777BB4"/><text x="258" y="400" font-family="'Segoe UI', Arial, sans-serif" font-size="11" fill="#8b949e">PHP</text>
  <circle cx="298" cy="396" r="4" fill="#239120"/><text x="306" y="400" font-family="'Segoe UI', Arial, sans-serif" font-size="11" fill="#7ee8be">C#</text>
  <circle cx="338" cy="396" r="4" fill="#d63aff"/><text x="346" y="400" font-family="'Segoe UI', Arial, sans-serif" font-size="11" fill="#8b949e">JWT</text>
  <circle cx="388" cy="396" r="4" fill="#1D9E75"/><text x="396" y="400" font-family="'Segoe UI', Arial, sans-serif" font-size="11" fill="#8b949e">Recurrente</text>
  <circle cx="472" cy="396" r="4" fill="#4285F4"/><text x="480" y="400" font-family="'Segoe UI', Arial, sans-serif" font-size="11" fill="#8b949e">Google OAuth</text>

  <text x="42" y="426" font-family="'Segoe UI', Arial, sans-serif" font-size="10" fill="#484f58" letter-spacing="2">BASE DE DATOS</text>
  <circle cx="152" cy="422" r="4" fill="#4169E1"/><text x="160" y="426" font-family="'Segoe UI', Arial, sans-serif" font-size="11" fill="#8b949e">PostgreSQL</text>
  <circle cx="248" cy="422" r="4" fill="#4479A1"/><text x="256" y="426" font-family="'Segoe UI', Arial, sans-serif" font-size="11" fill="#8b949e">MySQL</text>

  <text x="42" y="452" font-family="'Segoe UI', Arial, sans-serif" font-size="10" fill="#484f58" letter-spacing="2">DEPLOY</text>
  <circle cx="104" cy="448" r="4" fill="#ffffff"/><text x="112" y="452" font-family="'Segoe UI', Arial, sans-serif" font-size="11" fill="#8b949e">Vercel</text>
  <circle cx="160" cy="448" r="4" fill="#46E3B7"/><text x="168" y="452" font-family="'Segoe UI', Arial, sans-serif" font-size="11" fill="#8b949e">Render</text>
  <circle cx="224" cy="448" r="4" fill="#9B59B6"/><text x="232" y="452" font-family="'Segoe UI', Arial, sans-serif" font-size="11" fill="#8b949e">Railway</text>
  <circle cx="294" cy="448" r="4" fill="#3448C5"/><text x="302" y="452" font-family="'Segoe UI', Arial, sans-serif" font-size="11" fill="#8b949e">Cloudinary</text>
  <circle cx="380" cy="448" r="4" fill="#F05032"/><text x="388" y="452" font-family="'Segoe UI', Arial, sans-serif" font-size="11" fill="#8b949e">Git</text>

  <!-- BLOQUE 3 — PROYECTOS -->
  <line x1="42" y1="474" x2="638" y2="474" stroke="#21262d" stroke-width="0.5"/>
  <text x="42" y="498" font-family="Georgia, serif" font-size="15" font-weight="700" fill="#f0f6fc">Proyectos destacados</text>
  <line x1="42" y1="506" x2="190" y2="506" stroke="#1D9E75" stroke-width="1"/>

  <!-- Tarjeta 1 -->
  <rect x="42" y="518" width="185" height="128" rx="6" fill="#161b22" stroke="#21262d" stroke-width="0.5"/>
  <rect x="42" y="518" width="185" height="4" rx="3" fill="#1D9E75"/>
  <text x="54" y="546" font-family="Georgia, serif" font-size="13" font-weight="700" fill="#f0f6fc">Elite Fitness Club</text>
  <text x="54" y="564" font-family="'Segoe UI', Arial, sans-serif" font-size="10" fill="#484f58">Sistema administrativo para</text>
  <text x="54" y="578" font-family="'Segoe UI', Arial, sans-serif" font-size="10" fill="#484f58">gimnasio — Rabinal, B.V.</text>
  <text x="54" y="598" font-family="'Segoe UI', Arial, sans-serif" font-size="10" fill="#8b949e">React · Node.js · PostgreSQL</text>
  <a href="https://elitefinesclub.com/" target="_blank">
    <rect x="54" y="606" width="80" height="20" rx="4" fill="#0d1117" stroke="#1D9E75" stroke-width="0.5"/>
    <text x="94" y="620" font-family="'Segoe UI', Arial, sans-serif" font-size="10" fill="#1D9E75" text-anchor="middle">Ver sitio</text>
  </a>
  <a href="https://github.com/Alexander199824/gym-frontend" target="_blank">
    <rect x="142" y="606" width="72" height="20" rx="4" fill="#0d1117" stroke="#21262d" stroke-width="0.5"/>
    <text x="178" y="620" font-family="'Segoe UI', Arial, sans-serif" font-size="10" fill="#484f58" text-anchor="middle">Frontend</text>
  </a>
  <text x="54" y="640" font-family="'Segoe UI', Arial, sans-serif" font-size="9" fill="#1D9E75">Proyecto de tesis</text>

  <!-- Tarjeta 2 -->
  <rect x="247" y="518" width="185" height="128" rx="6" fill="#161b22" stroke="#21262d" stroke-width="0.5"/>
  <rect x="247" y="518" width="185" height="4" rx="3" fill="#3178C6"/>
  <text x="259" y="546" font-family="Georgia, serif" font-size="13" font-weight="700" fill="#f0f6fc">Farmacia Elizabeth</text>
  <text x="259" y="564" font-family="'Segoe UI', Arial, sans-serif" font-size="10" fill="#484f58">Gestion farmaceutica con</text>
  <text x="259" y="578" font-family="'Segoe UI', Arial, sans-serif" font-size="10" fill="#484f58">inventario FIFO por lotes.</text>
  <text x="259" y="598" font-family="'Segoe UI', Arial, sans-serif" font-size="10" fill="#8b949e">React · Node.js · PostgreSQL</text>
  <a href="https://elizabet-farmacia-frontend2.vercel.app/" target="_blank">
    <rect x="259" y="606" width="80" height="20" rx="4" fill="#0d1117" stroke="#3178C6" stroke-width="0.5"/>
    <text x="299" y="620" font-family="'Segoe UI', Arial, sans-serif" font-size="10" fill="#3178C6" text-anchor="middle">Ver sitio</text>
  </a>
  <a href="https://github.com/Alexander199824/elizabet-farmacia-frontend2" target="_blank">
    <rect x="347" y="606" width="72" height="20" rx="4" fill="#0d1117" stroke="#21262d" stroke-width="0.5"/>
    <text x="383" y="620" font-family="'Segoe UI', Arial, sans-serif" font-size="10" fill="#484f58" text-anchor="middle">Frontend</text>
  </a>
  <text x="259" y="640" font-family="'Segoe UI', Arial, sans-serif" font-size="9" fill="#484f58">5 roles de usuario</text>

  <!-- Tarjeta 3 -->
  <rect x="452" y="518" width="185" height="128" rx="6" fill="#161b22" stroke="#21262d" stroke-width="0.5"/>
  <rect x="452" y="518" width="185" height="4" rx="3" fill="#777BB4"/>
  <text x="464" y="546" font-family="Georgia, serif" font-size="13" font-weight="700" fill="#f0f6fc">Bufete Jeronimo</text>
  <text x="464" y="564" font-family="'Segoe UI', Arial, sans-serif" font-size="10" fill="#484f58">Sistema juridico con gestion</text>
  <text x="464" y="578" font-family="'Segoe UI', Arial, sans-serif" font-size="10" fill="#484f58">de casos y expedientes.</text>
  <text x="464" y="598" font-family="'Segoe UI', Arial, sans-serif" font-size="10" fill="#8b949e">HTML · CSS · PHP · MySQL</text>
  <a href="https://github.com/Alexander199824/webBUfete" target="_blank">
    <rect x="464" y="606" width="104" height="20" rx="4" fill="#0d1117" stroke="#777BB4" stroke-width="0.5"/>
    <text x="516" y="620" font-family="'Segoe UI', Arial, sans-serif" font-size="10" fill="#777BB4" text-anchor="middle">Ver repositorio</text>
  </a>
  <text x="464" y="640" font-family="'Segoe UI', Arial, sans-serif" font-size="9" fill="#484f58">2023</text>

  <!-- BLOQUE 4 — CONTACTO -->
  <line x1="42" y1="664" x2="638" y2="664" stroke="#21262d" stroke-width="0.5"/>
  <text x="42" y="688" font-family="Georgia, serif" font-size="15" font-weight="700" fill="#f0f6fc">Contactame</text>
  <line x1="42" y1="696" x2="130" y2="696" stroke="#1D9E75" stroke-width="1"/>

  <rect x="42" y="712" width="18" height="12" rx="2" fill="none" stroke="#484f58" stroke-width="0.8"/>
  <line x1="42" y1="712" x2="51" y2="719" stroke="#484f58" stroke-width="0.8"/>
  <line x1="60" y1="712" x2="51" y2="719" stroke="#484f58" stroke-width="0.8"/>
  <text x="68" y="723" font-family="'Segoe UI', Arial, sans-serif" font-size="12" fill="#8b949e">echeverriaalexander884@gmail.com</text>

  <circle cx="51" cy="750" r="7" fill="#f0f6fc"/>
  <circle cx="51" cy="750" r="5" fill="#0d1117"/>
  <circle cx="51" cy="747" r="3" fill="#f0f6fc"/>
  <text x="66" y="754" font-family="'Segoe UI', Arial, sans-serif" font-size="12" fill="#8b949e">github.com/Alexander199824</text>

  <circle cx="51" cy="782" r="7" fill="#25D366"/>
  <text x="51" y="786" font-family="'Segoe UI', Arial, sans-serif" font-size="8" font-weight="700" fill="#ffffff" text-anchor="middle">W</text>
  <text x="66" y="786" font-family="'Segoe UI', Arial, sans-serif" font-size="12" fill="#8b949e">+502 3080 3174</text>

  <line x1="42" y1="808" x2="638" y2="808" stroke="#21262d" stroke-width="0.5"/>
  <text x="42" y="824" font-family="'Segoe UI', Arial, sans-serif" font-size="10" fill="#484f58">Abierto a proyectos freelance y oportunidades laborales</text>
  <text x="638" y="824" font-family="'Segoe UI', Arial, sans-serif" font-size="10" fill="#1D9E75" text-anchor="end">2025</text>

</svg>
