<svg width="680" height="480" viewBox="0 0 680 480" xmlns="http://www.w3.org/2000/svg">

  <rect width="680" height="480" fill="#0d1117"/>
  <rect x="0" y="0" width="4" height="480" fill="#1D9E75"/>
  <circle cx="620" cy="30" r="140" fill="none" stroke="#161b22" stroke-width="1"/>
  <circle cx="660" cy="110" r="90" fill="none" stroke="#1c2128" stroke-width="0.8"/>

  <text x="42" y="72" font-family="Georgia, 'Times New Roman', serif" font-size="52" font-weight="700" fill="#f0f6fc" letter-spacing="-2">Alexander Echeverría</text>
  <line x1="42" y1="88" x2="400" y2="88" stroke="#1D9E75" stroke-width="1.5"/>
  <text x="42" y="110" font-family="'Segoe UI', Arial, sans-serif" font-size="12" fill="#8b949e" letter-spacing="3">FULL-STACK DEVELOPER JR</text>

  <text x="42" y="146" font-family="'Segoe UI', Arial, sans-serif" font-size="12" fill="#c9d1d9">Ingeniero en Sistemas con mas de 3 anos de experiencia construyendo</text>
  <text x="42" y="163" font-family="'Segoe UI', Arial, sans-serif" font-size="12" fill="#c9d1d9">aplicaciones web completas. Especializado en React, Node.js y PostgreSQL,</text>
  <text x="42" y="180" font-family="'Segoe UI', Arial, sans-serif" font-size="12" fill="#c9d1d9">con enfoque en soluciones reales para negocios e instituciones en Guatemala.</text>
  <text x="42" y="204" font-family="'Segoe UI', Arial, sans-serif" font-size="12" fill="#484f58">Experiencia adicional en infraestructura tecnologica, administracion de sistemas,</text>
  <text x="42" y="221" font-family="'Segoe UI', Arial, sans-serif" font-size="12" fill="#484f58">instalacion de redes y soporte tecnico especializado.</text>

  <line x1="42" y1="244" x2="638" y2="244" stroke="#21262d" stroke-width="0.5"/>
  <text x="42" y="264" font-family="'Segoe UI', Arial, sans-serif" font-size="11" fill="#1D9E75">github.com/Alexander199824</text>
  <text x="540" y="264" font-family="'Segoe UI', Arial, sans-serif" font-size="11" fill="#484f58">Guatemala</text>

  <line x1="42" y1="286" x2="638" y2="286" stroke="#21262d" stroke-width="0.5"/>
  <text x="42" y="310" font-family="Georgia, serif" font-size="15" font-weight="700" fill="#f0f6fc">Tecnologias</text>
  <line x1="42" y1="318" x2="130" y2="318" stroke="#1D9E75" stroke-width="1"/>

  <text x="42" y="340" font-family="'Segoe UI', Arial, sans-serif" font-size="10" fill="#484f58" letter-spacing="2">FRONTEND</text>
  <circle cx="114" cy="336" r="4" fill="#E34F26"/><text x="122" y="340" font-family="'Segoe UI', Arial, sans-serif" font-size="11" fill="#8b949e">HTML5</text>
  <circle cx="172" cy="336" r="4" fill="#1572B6"/><text x="180" y="340" font-family="'Segoe UI', Arial, sans-serif" font-size="11" fill="#8b949e">CSS3</text>
  <circle cx="220" cy="336" r="4" fill="#61DAFB"/><text x="228" y="340" font-family="'Segoe UI', Arial, sans-serif" font-size="11" fill="#8b949e">React</text>
  <circle cx="276" cy="336" r="4" fill="#3178C6"/><text x="284" y="340" font-family="'Segoe UI', Arial, sans-serif" font-size="11" fill="#8b949e">TypeScript</text>
  <circle cx="368" cy="336" r="4" fill="#F7DF1E"/><text x="376" y="340" font-family="'Segoe UI', Arial, sans-serif" font-size="11" fill="#8b949e">JavaScript</text>
  <circle cx="452" cy="336" r="4" fill="#38B2AC"/><text x="460" y="340" font-family="'Segoe UI', Arial, sans-serif" font-size="11" fill="#8b949e">Tailwind</text>
  <circle cx="520" cy="336" r="4" fill="#646CFF"/><text x="528" y="340" font-family="'Segoe UI', Arial, sans-serif" font-size="11" fill="#8b949e">Vite</text>

  <text x="42" y="366" font-family="'Segoe UI', Arial, sans-serif" font-size="10" fill="#484f58" letter-spacing="2">BACKEND</text>
  <circle cx="114" cy="362" r="4" fill="#339933"/><text x="122" y="366" font-family="'Segoe UI', Arial, sans-serif" font-size="11" fill="#8b949e">Node.js</text>
  <circle cx="178" cy="362" r="4" fill="#aaaaaa"/><text x="186" y="366" font-family="'Segoe UI', Arial, sans-serif" font-size="11" fill="#8b949e">Express</text>
  <circle cx="250" cy="362" r="4" fill="#777BB4"/><text x="258" y="366" font-family="'Segoe UI', Arial, sans-serif" font-size="11" fill="#8b949e">PHP</text>
  <circle cx="298" cy="362" r="4" fill="#239120"/><text x="306" y="366" font-family="'Segoe UI', Arial, sans-serif" font-size="11" fill="#7ee8be">C#</text>
  <circle cx="338" cy="362" r="4" fill="#d63aff"/><text x="346" y="366" font-family="'Segoe UI', Arial, sans-serif" font-size="11" fill="#8b949e">JWT</text>
  <circle cx="388" cy="362" r="4" fill="#1D9E75"/><text x="396" y="366" font-family="'Segoe UI', Arial, sans-serif" font-size="11" fill="#8b949e">Recurrente</text>
  <circle cx="472" cy="362" r="4" fill="#4285F4"/><text x="480" y="366" font-family="'Segoe UI', Arial, sans-serif" font-size="11" fill="#8b949e">Google OAuth</text>

  <text x="42" y="392" font-family="'Segoe UI', Arial, sans-serif" font-size="10" fill="#484f58" letter-spacing="2">BASE DE DATOS</text>
  <circle cx="152" cy="388" r="4" fill="#4169E1"/><text x="160" y="392" font-family="'Segoe UI', Arial, sans-serif" font-size="11" fill="#8b949e">PostgreSQL</text>
  <circle cx="248" cy="388" r="4" fill="#4479A1"/><text x="256" y="392" font-family="'Segoe UI', Arial, sans-serif" font-size="11" fill="#8b949e">MySQL</text>

  <text x="42" y="418" font-family="'Segoe UI', Arial, sans-serif" font-size="10" fill="#484f58" letter-spacing="2">DEPLOY</text>
  <circle cx="104" cy="414" r="4" fill="#ffffff"/><text x="112" y="418" font-family="'Segoe UI', Arial, sans-serif" font-size="11" fill="#8b949e">Vercel</text>
  <circle cx="160" cy="414" r="4" fill="#46E3B7"/><text x="168" y="418" font-family="'Segoe UI', Arial, sans-serif" font-size="11" fill="#8b949e">Render</text>
  <circle cx="224" cy="414" r="4" fill="#9B59B6"/><text x="232" y="418" font-family="'Segoe UI', Arial, sans-serif" font-size="11" fill="#8b949e">Railway</text>
  <circle cx="294" cy="414" r="4" fill="#3448C5"/><text x="302" y="418" font-family="'Segoe UI', Arial, sans-serif" font-size="11" fill="#8b949e">Cloudinary</text>
  <circle cx="380" cy="414" r="4" fill="#F05032"/><text x="388" y="418" font-family="'Segoe UI', Arial, sans-serif" font-size="11" fill="#8b949e">Git</text>

  <line x1="42" y1="458" x2="638" y2="458" stroke="#21262d" stroke-width="0.5"/>
  <text x="42" y="472" font-family="Georgia, serif" font-size="13" font-weight="700" fill="#f0f6fc">Proyectos destacados</text>

</svg>
